<?xml version="1.0" encoding="UTF-8"?><svg id="uuid-6ade76aa-465d-4342-aa15-2525edf27da8" xmlns="http://www.w3.org/2000/svg" viewBox="0 0 338.23 434.27"><path d="M173.34,389.14v-171.78c0-.47-.38-.85-.85-.85h-6.93c-.47,0-.85.38-.85.85v171.67c0,.6-.36,1.15-.93,1.35-6.43,2.2-10.99,8.43-10.64,15.69.39,8,6.98,14.58,14.98,14.95,9.05.42,16.52-6.79,16.52-15.74,0-6.8-4.31-12.58-10.34-14.79-.57-.21-.97-.73-.97-1.34ZM168.88,413.06c-4.3,0-7.78-3.48-7.78-7.78s3.48-7.78,7.78-7.78,7.78,3.48,7.78,7.78-3.48,7.78-7.78,7.78ZM201.61,260.89l28.92,27.74c.26.25.62.39.98.39h94.79c.39,0,.74-.18,1.01-.45,1.12-1.14,2.65-1.86,4.36-1.91,3.39-.1,6.5,2.87,6.55,6.26.06,3.57-2.81,6.48-6.37,6.48-1.8,0-3.43-.75-4.58-1.95-.27-.28-.65-.42-1.04-.42h-96.9c-1.03,0-2.02-.4-2.77-1.11l-28.92-27.74c-.26-.25-.62-.39-.98-.39h-9.99c-.31,0-.57-.25-.57-.57v-6.87c0-.31.25-.57.57-.57h12.17c1.03,0,2.02.4,2.77,1.11ZM169.13,97.11s0,0-.01,0c0,0,0,0-.01,0-10.61,0-20.94-10.9-20.94-29.88,0-23.96,7.1-40.69,20.95-67.23,13.85,26.54,20.95,43.27,20.95,67.23,0,18.97-10.33,29.88-20.94,29.88ZM213.19,80.13c2.12,10.37.13,27.81-2.24,36.48-4.93,18.01-17.31,32.99-36.47,36.41-3.68-35.29,13.98-59.52,38.72-72.89ZM229.64,423.31c1.2,1.16,1.95,2.78,1.95,4.58,0,3.55-2.91,6.43-6.48,6.37-3.39-.06-6.36-3.16-6.26-6.55.05-1.71.77-3.25,1.91-4.36.28-.27.45-.62.45-1.01v-40.42c0-.38-.15-.75-.43-1.02-4.98-4.8-10.94-10.61-16.98-16.5v13.6c0,.39.14.77.42,1.04,1.2,1.16,1.95,2.78,1.95,4.58,0,3.55-2.91,6.43-6.48,6.37-3.39-.06-6.36-3.16-6.26-6.55.05-1.71.77-3.25,1.91-4.36.28-.27.45-.62.45-1.01v-21.47c-3.23-3.16-6.46-6.3-9.54-9.3-.11-.11-.17-.25-.17-.4v-9.57c0-.5.6-.76.96-.41,5.43,5.26,11.59,11.27,17.61,17.15,6.25,6.1,17.06,16.59,21.98,21.36,1.65,1.6,2.58,3.8,2.58,6.09v40.76c0,.39.14.77.42,1.04ZM277.84,381.42c-3.78-.39-7.31.66-10.11,2.65-.55.39-1.3.32-1.78-.15-8.72-8.45-24.66-24.02-40.17-39.16-14.69-14.35-29.78-29.07-38.71-37.75-.36-.35-.96-.09-.96.41v9.58c0,.15.06.3.17.4,9.01,8.77,21.6,21.06,33.92,33.09,16.3,15.91,33.08,32.29,41.47,40.42.38.36.5.9.36,1.4-.56,2.09-.68,4.36-.2,6.72,1.26,6.26,6.55,11.09,12.9,11.74,9.22.95,16.94-6.6,16.28-15.77-.51-7.05-6.13-12.86-13.16-13.59ZM276.28,403.53c-4.11,0-7.44-3.33-7.44-7.44s3.33-7.44,7.44-7.44,7.44,3.33,7.44,7.44-3.33,7.44-7.44,7.44ZM173.67,216.02c-2.98-33.28,14.4-55.64,40.08-67.6,1.94,9.81.79,26.16-1.83,34.25-5.46,16.82-18.5,30.61-38.24,33.35ZM331.68,344.74c-1.71.05-3.25.77-4.36,1.91-.27.28-.62.45-1.01.45h-66.59c-.37,0-.71-.14-.98-.39-4.66-4.5-12.7-12.31-21.86-21.22,3.05-.04,6.43-.08,9.77-.12,5.38-.07,10.87-.13,14.92-.19.64,0,1.21.41,1.36,1.03,1.61,6.53,7.56,11.34,14.62,11.2,7.66-.16,14.08-6.39,14.43-14.05.4-8.47-6.36-15.46-14.74-15.46-5.88,0-10.95,3.44-13.32,8.42-.24.5-.72.84-1.27.85-4.1.06-10.17.13-16.09.2-6.79.08-13.76.17-17.78.23-2.93-2.85-5.91-5.75-8.87-8.64-12.07-11.75-24.44-23.79-32.83-31.92-.36-.35-.96-.09-.96.41v9.57c0,.15.06.3.17.4,7.95,7.72,18.09,17.59,28.04,27.27,13.51,13.15,32.44,31.51,39.14,38.01,1.59,1.54,3.71,2.4,5.92,2.4h66.87c.39,0,.77.14,1.04.42,1.16,1.2,2.78,1.95,4.58,1.95,3.55,0,6.43-2.91,6.37-6.48-.06-3.39-3.16-6.36-6.55-6.26ZM277.23,315.23c4.11,0,7.44,3.33,7.44,7.44s-3.33,7.44-7.44,7.44-7.44-3.33-7.44-7.44,3.33-7.44,7.44-7.44ZM152.13,337.32v9.57c0,.15-.06.3-.17.4-3.09,3-6.31,6.15-9.54,9.3v21.47c0,.39.18.74.45,1.01,1.14,1.12,1.86,2.65,1.91,4.36.1,3.39-2.87,6.5-6.26,6.55-3.57.06-6.48-2.81-6.48-6.37,0-1.8.75-3.43,1.95-4.58.28-.27.42-.65.42-1.04v-13.6c-6.04,5.9-12,11.7-16.98,16.5-.28.27-.43.63-.43,1.02v40.42c0,.39.18.74.45,1.01,1.14,1.12,1.86,2.65,1.91,4.36.1,3.39-2.87,6.5-6.26,6.55-3.57.06-6.48-2.81-6.48-6.37,0-1.8.75-3.43,1.95-4.58.28-.27.42-.65.42-1.04v-40.76c0-2.3.93-4.49,2.58-6.09,4.92-4.78,15.74-15.27,21.98-21.36,6.02-5.88,12.18-11.89,17.61-17.15.36-.35.96-.09.96.41ZM127.28,116.61c-2.37-8.67-4.36-26.1-2.24-36.48,24.74,13.37,42.4,37.6,38.72,72.89-19.17-3.42-31.55-18.4-36.47-36.41ZM151.17,277.04c-8.39,8.13-20.75,20.17-32.83,31.92-2.96,2.88-5.94,5.78-8.87,8.64-4.02-.06-10.99-.14-17.78-.23-5.92-.07-11.99-.14-16.09-.2-.55,0-1.04-.35-1.27-.85-2.37-4.98-7.44-8.42-13.32-8.42-8.38,0-15.14,6.99-14.74,15.46.36,7.66,6.77,13.89,14.43,14.05,7.06.14,13-4.67,14.62-11.2.15-.62.72-1.04,1.36-1.03,4.05.05,9.54.12,14.92.19,3.34.04,6.71.08,9.77.12-9.17,8.92-17.21,16.73-21.86,21.22-.26.26-.61.39-.98.39H11.93c-.39,0-.74-.18-1.01-.45-1.12-1.14-2.65-1.86-4.36-1.91-3.39-.1-6.5,2.87-6.55,6.26-.06,3.57,2.82,6.48,6.37,6.48,1.8,0,3.43-.75,4.58-1.95.27-.28.65-.42,1.04-.42h66.87c2.21,0,4.33-.86,5.92-2.4,6.7-6.5,25.63-24.86,39.14-38.01,9.94-9.68,20.09-19.55,28.04-27.27.11-.11.17-.25.17-.4v-9.57c0-.5-.6-.76-.96-.41ZM61,330.1c-4.11,0-7.44-3.33-7.44-7.44s3.33-7.44,7.44-7.44,7.44,3.33,7.44,7.44-3.33,7.44-7.44,7.44ZM151.17,307.02c-8.94,8.68-24.02,23.4-38.71,37.75-15.51,15.14-31.45,30.71-40.17,39.16-.48.47-1.23.54-1.78.15-2.8-2-6.33-3.04-10.11-2.65-7.03.72-12.65,6.54-13.16,13.59-.66,9.17,7.06,16.71,16.28,15.77,6.35-.65,11.64-5.49,12.9-11.74.47-2.36.35-4.63-.2-6.72-.14-.51-.01-1.04.36-1.4,8.39-8.12,25.16-24.5,41.47-40.42,12.32-12.03,24.91-24.32,33.92-33.09.11-.11.17-.25.17-.4v-9.58c0-.5-.6-.76-.96-.41ZM61.95,403.53c-4.11,0-7.44-3.33-7.44-7.44s3.33-7.44,7.44-7.44,7.44,3.33,7.44,7.44-3.33,7.44-7.44,7.44ZM152.13,260.34v6.87c0,.31-.25.57-.57.57h-9.99c-.37,0-.72.14-.98.39l-28.92,27.74c-.74.71-1.74,1.11-2.77,1.11H12c-.39,0-.77.14-1.04.42-1.16,1.2-2.78,1.95-4.58,1.95-3.55,0-6.43-2.91-6.37-6.48.06-3.39,3.16-6.36,6.55-6.26,1.71.05,3.25.77,4.36,1.91.27.28.62.45,1.01.45h94.79c.37,0,.72-.14.98-.39l28.92-27.74c.74-.71,1.74-1.11,2.77-1.11h12.17c.31,0,.57.25.57.57ZM164.56,216.02c-19.74-2.74-32.78-16.53-38.24-33.35-2.63-8.09-3.78-24.44-1.83-34.25,25.68,11.97,43.06,34.32,40.08,67.6Z"/></svg>